<?xml version="1.0" standalone="no"?>
<!DOCTYPE svg PUBLIC "-//W3C//DTD SVG 20010904//EN"
 "http://www.w3.org/TR/2001/REC-SVG-20010904/DTD/svg10.dtd">
<svg version="1.0" xmlns="http://www.w3.org/2000/svg"
 width="512.000000pt" height="512.000000pt" viewBox="0 0 512.000000 512.000000"
 preserveAspectRatio="xMidYMid meet">

<g transform="translate(0.000000,512.000000) scale(0.100000,-0.100000)"
fill="#000000" stroke="none">
<path d="M3674 5093 c-9 -16 -102 -221 -209 -457 l-193 -430 -38 -13 c-22 -7
-50 -25 -63 -40 -22 -25 -23 -33 -18 -100 l5 -73 -39 32 c-63 52 -99 68 -155
68 -101 0 -196 -72 -209 -159 -3 -20 -9 -49 -13 -66 l-8 -29 -32 52 c-49 79
-102 95 -180 53 -40 -22 -47 -49 -53 -226 l-5 -170 -57 -129 c-83 -184 -101
-257 -102 -392 l0 -112 -75 80 c-98 105 -114 132 -155 264 -41 131 -68 163
-139 171 -76 9 -110 -25 -131 -127 l-12 -55 -26 51 c-52 103 -119 142 -226
131 -76 -8 -123 -43 -163 -120 l-31 -62 -17 69 c-21 85 -51 116 -112 116 -78
0 -120 -47 -153 -170 -30 -109 -62 -166 -148 -258 -225 -243 -281 -349 -293
-552 -8 -122 12 -217 67 -330 53 -107 160 -217 264 -272 l70 -37 -367 -1
c-320 0 -369 -2 -382 -16 -13 -12 -16 -41 -16 -150 l0 -134 -114 0 c-92 0
-118 -3 -131 -16 -14 -14 -15 -77 -13 -618 l3 -601 26 -56 c37 -79 90 -133
167 -171 l67 -33 2295 0 2295 0 67 33 c77 38 130 92 167 171 l26 56 3 601 c2
541 1 604 -13 618 -13 13 -39 16 -131 16 l-114 0 0 134 c0 109 -3 138 -16 150
-14 14 -152 16 -1372 16 l-1357 1 70 37 c94 50 209 165 257 257 54 105 72 181
72 316 l1 115 45 -34 c124 -96 282 -138 485 -129 204 9 390 60 602 163 252
123 425 299 489 498 48 147 35 322 -35 471 -32 69 -109 175 -126 175 -6 0 -24
-13 -39 -29 -30 -32 -30 -33 15 -91 62 -79 105 -193 115 -305 29 -326 -279
-615 -801 -753 -88 -23 -120 -26 -260 -27 -175 0 -214 8 -329 68 -158 83 -276
287 -276 477 0 105 24 185 126 425 38 89 39 92 44 249 3 112 9 161 17 163 7 3
27 -19 44 -47 33 -55 82 -85 116 -74 64 21 85 51 98 139 9 66 20 84 60 101 58
24 91 18 138 -25 71 -64 110 -75 166 -46 40 20 54 61 45 132 -4 32 -7 60 -7
63 0 3 7 6 15 8 10 2 38 -26 76 -75 33 -43 83 -100 112 -128 l53 -49 -65 -61
c-204 -187 -578 -551 -583 -566 -7 -22 -7 -23 63 -116 54 -73 80 -91 106 -76
16 9 2040 1727 2074 1760 12 12 22 30 22 40 0 28 -237 293 -262 293 -11 0 -47
-26 -81 -59 -34 -32 -318 -302 -631 -600 -448 -426 -571 -539 -582 -530 -11 9
-10 17 5 47 11 21 122 235 248 477 126 242 232 447 235 456 4 9 0 26 -9 38
-17 25 -302 171 -333 171 -12 0 -27 -11 -36 -27z m169 -143 c48 -24 87 -49 87
-54 0 -18 -452 -877 -460 -874 -5 2 -31 33 -59 70 l-50 68 171 377 c94 208
179 397 189 421 11 24 22 42 27 40 4 -2 46 -23 95 -48z m1085 -37 l72 -81
-987 -839 c-543 -461 -992 -839 -998 -840 -5 -2 -18 9 -28 22 l-18 26 98 93
c54 51 478 456 943 899 465 443 845 805 846 804 0 -1 33 -39 72 -84z m-3693
-1635 c12 -73 31 -107 68 -123 25 -10 44 -12 67 -5 43 12 58 26 85 81 30 59
68 89 111 89 55 0 83 -19 116 -83 37 -69 64 -90 118 -90 61 0 92 37 105 126 7
47 23 59 42 35 6 -7 24 -58 41 -113 39 -125 67 -170 200 -315 58 -63 121 -140
141 -170 144 -225 112 -525 -76 -700 -247 -231 -844 -282 -1213 -103 -216 104
-330 294 -317 523 9 166 60 266 227 446 132 141 160 186 201 319 18 55 36 106
42 113 19 24 35 12 42 -30z m3525 -1678 l0 -100 -2200 0 -2200 0 0 100 0 100
2200 0 2200 0 0 -100z m-4140 -325 l0 -125 -50 0 -50 0 0 -50 0 -50 50 0 50 0
0 -125 0 -125 -260 0 -260 0 0 300 0 300 260 0 260 0 0 -125z m4400 -418 c0
-615 1 -607 -75 -682 -81 -82 112 -75 -2182 -75 l-2043 0 0 125 0 125 50 0 50
0 0 50 0 50 -50 0 -50 0 0 125 0 125 2075 0 2075 0 0 50 0 50 -2075 0 -2075 0
0 125 0 125 50 0 50 0 0 50 0 50 -50 0 -50 0 0 125 0 125 2150 0 2150 0 0
-543z m-4400 -282 l0 -125 -50 0 -50 0 0 -50 0 -50 50 0 50 0 0 -125 0 -125
-153 0 c-183 0 -230 12 -292 75 -66 65 -75 106 -75 332 l0 193 260 0 260 0 0
-125z"/>
<path d="M1220 2953 c-25 -104 -116 -228 -219 -304 l-34 -25 23 -42 23 -41 30
17 c105 61 219 207 261 334 36 106 36 108 -23 108 l-49 0 -12 -47z"/>
<path d="M1520 2735 l0 -265 50 0 50 0 0 265 0 265 -50 0 -50 0 0 -265z"/>
<path d="M1815 2968 c31 -156 114 -284 249 -385 l59 -44 28 42 27 42 -58 43
c-96 70 -174 183 -201 288 l-11 46 -50 0 -50 0 7 -32z"/>
</g>
</svg>
