<?xml version="1.0" standalone="no"?>
<!DOCTYPE svg PUBLIC "-//W3C//DTD SVG 20010904//EN"
 "http://www.w3.org/TR/2001/REC-SVG-20010904/DTD/svg10.dtd">
<svg version="1.0" xmlns="http://www.w3.org/2000/svg"
 width="512.000000pt" height="512.000000pt" viewBox="0 0 512.000000 512.000000"
 preserveAspectRatio="xMidYMid meet">

<g transform="translate(0.000000,512.000000) scale(0.100000,-0.100000)"
fill="#000000" stroke="none">
<path d="M2310 4679 c-318 -37 -667 -166 -932 -345 -321 -217 -568 -499 -733
-838 -145 -297 -215 -600 -215 -936 0 -247 31 -440 106 -669 151 -461 457
-854 879 -1131 178 -116 454 -231 675 -280 211 -47 495 -63 705 -40 312 35
629 145 891 310 152 95 237 164 375 300 299 296 496 654 583 1060 34 157 46
281 46 462 0 183 -12 270 -45 320 -28 42 -93 83 -147 92 -83 15 -178 -36 -220
-117 -19 -39 -20 -52 -15 -185 10 -253 -17 -456 -88 -670 -92 -274 -274 -547
-488 -733 -786 -681 -1972 -523 -2548 339 -379 566 -379 1319 0 1884 297 444
753 712 1291 758 271 24 541 -23 824 -142 107 -45 125 -50 178 -46 180 13 259
241 126 365 -54 51 -316 154 -504 198 -213 51 -524 69 -744 44z"/>
<path d="M4415 4255 c-22 -8 -42 -15 -45 -15 -3 0 -411 -406 -907 -902 l-903
-903 -258 257 c-141 141 -273 264 -292 274 -73 38 -188 16 -247 -48 -54 -57
-69 -167 -34 -236 11 -20 178 -195 373 -389 368 -366 376 -373 458 -373 86 0
49 -35 1103 1018 805 805 1000 1005 1013 1039 24 63 15 143 -22 196 -54 77
-158 113 -239 82z"/>
</g>
</svg>
