<?xml version="1.0" standalone="no"?>
<!DOCTYPE svg PUBLIC "-//W3C//DTD SVG 20010904//EN"
 "http://www.w3.org/TR/2001/REC-SVG-20010904/DTD/svg10.dtd">
<svg version="1.0" xmlns="http://www.w3.org/2000/svg"
 width="512.000000pt" height="512.000000pt" viewBox="0 0 512.000000 512.000000"
 preserveAspectRatio="xMidYMid meet">

<g transform="translate(0.000000,512.000000) scale(0.100000,-0.100000)"
fill="#000000" stroke="none">
<path d="M1820 5010 c-25 -5 -83 -28 -130 -51 -76 -38 -98 -55 -210 -172 -283
-295 -311 -320 -395 -364 -44 -23 -138 -66 -208 -97 -169 -74 -259 -128 -332
-201 -114 -113 -152 -221 -185 -524 -32 -292 -47 -338 -190 -581 -138 -236
-165 -310 -165 -460 0 -150 27 -224 165 -460 143 -243 158 -289 190 -581 33
-303 71 -411 185 -524 73 -73 163 -127 332 -201 70 -31 164 -74 208 -97 84
-44 112 -69 395 -364 112 -117 134 -134 210 -172 47 -22 112 -46 145 -52 81
-15 217 -5 361 26 338 74 389 74 729 0 143 -32 278 -41 360 -26 33 6 98 30
145 52 76 38 98 55 210 172 283 295 311 320 395 364 44 23 138 66 208 97 174
76 261 128 332 200 114 115 152 222 185 525 32 292 47 338 190 581 138 236
165 310 165 460 0 150 -27 224 -165 460 -102 174 -130 235 -156 339 -25 102
-45 131 -91 131 -30 0 -73 -42 -73 -72 0 -44 40 -188 69 -253 17 -37 62 -121
102 -187 223 -377 223 -459 0 -836 -135 -228 -156 -296 -191 -612 -35 -323
-79 -413 -252 -514 -25 -15 -125 -62 -221 -105 -232 -103 -290 -144 -439 -304
-284 -305 -338 -344 -484 -354 -83 -5 -134 2 -394 57 -199 41 -321 41 -520 0
-260 -55 -311 -62 -394 -57 -145 10 -202 51 -484 354 -149 160 -207 201 -439
304 -256 115 -326 160 -382 247 -47 75 -69 169 -96 401 -35 305 -50 354 -186
583 -223 377 -223 459 0 836 136 229 151 278 186 583 27 233 49 326 97 402 56
87 122 130 381 246 230 103 290 144 434 299 284 306 343 349 489 359 83 5 134
-2 394 -57 199 -41 321 -41 520 0 260 55 311 62 394 57 146 -10 200 -49 484
-354 149 -160 207 -201 438 -304 95 -42 198 -91 229 -109 119 -68 186 -161
218 -303 18 -82 38 -107 83 -107 40 0 74 32 74 70 0 49 -39 180 -72 243 -42
80 -134 173 -225 225 -39 23 -129 67 -200 98 -70 31 -164 74 -208 97 -84 44
-131 87 -385 354 -119 126 -183 174 -285 213 -90 36 -275 34 -440 -4 -332 -75
-393 -75 -730 -1 -131 29 -300 40 -375 25z"/>
<path d="M2350 4574 c-14 -2 -59 -9 -100 -15 -305 -43 -634 -181 -895 -375
-417 -310 -693 -757 -791 -1281 -25 -136 -31 -469 -10 -613 57 -396 222 -762
472 -1050 84 -96 116 -109 159 -65 39 38 33 73 -24 138 -227 259 -374 557
-443 897 -20 101 -23 144 -23 350 0 206 3 249 23 349 121 598 508 1094 1052
1349 124 58 298 115 441 144 101 20 142 23 354 23 222 -1 249 -3 366 -27 496
-107 911 -388 1193 -808 125 -185 230 -443 278 -681 20 -100 23 -143 23 -349
0 -206 -3 -249 -23 -349 -102 -504 -387 -930 -812 -1215 -185 -125 -443 -230
-681 -278 -101 -20 -142 -23 -354 -23 -222 1 -250 3 -365 27 -244 53 -469 146
-675 282 -55 36 -110 66 -123 66 -29 0 -72 -42 -72 -70 0 -38 19 -58 118 -123
240 -159 479 -256 757 -308 139 -26 448 -37 591 -20 250 30 450 89 677 203
532 265 918 748 1062 1327 44 180 50 236 50 481 0 245 -6 301 -50 481 -194
782 -820 1368 -1620 1515 -86 15 -492 29 -555 18z"/>
<path d="M1827 3660 l-26 -21 -3 -407 c-3 -398 -3 -408 -25 -448 -77 -145
-276 -181 -392 -71 -48 46 -71 101 -71 175 0 77 25 131 74 161 51 32 63 84 26
121 -67 67 -209 -43 -241 -185 -19 -87 -8 -200 28 -270 38 -74 114 -147 191
-183 50 -24 69 -27 162 -27 93 0 112 3 162 27 118 55 206 170 228 298 7 42 10
193 8 433 l-3 369 -28 24 c-34 29 -56 30 -90 4z"/>
<path d="M2771 3611 c-26 -26 -29 -46 -40 -331 -13 -328 -43 -444 -146 -558
-105 -117 -308 -165 -476 -112 -73 22 -107 14 -123 -33 -28 -79 56 -127 234
-134 200 -9 348 44 461 165 35 37 78 93 95 125 l31 58 36 -60 c77 -124 219
-224 392 -277 82 -25 104 -28 255 -28 265 -1 399 43 449 146 26 54 28 136 5
184 -24 50 -86 100 -189 150 -203 99 -381 111 -471 32 -66 -58 -80 -113 -39
-153 36 -36 69 -32 115 15 35 36 44 40 89 40 82 0 286 -75 344 -127 21 -20 22
-66 2 -87 -49 -48 -371 -70 -504 -33 -160 44 -288 142 -350 268 -53 109 -63
195 -55 480 l7 246 -28 21 c-34 27 -69 28 -94 3z"/>
<path d="M2132 3467 c-43 -46 -26 -92 51 -135 61 -34 122 -98 144 -151 9 -20
19 -67 23 -104 5 -42 15 -75 25 -87 24 -27 79 -26 106 1 19 19 21 30 17 103
-3 65 -11 96 -36 149 -54 117 -201 247 -279 247 -18 0 -38 -9 -51 -23z"/>
<path d="M1161 2271 c-30 -30 -32 -63 -29 -359 l3 -274 29 -25 c22 -18 35 -23
55 -18 55 14 60 28 63 159 l3 121 113 3 112 3 0 -116 c0 -116 0 -117 30 -147
25 -24 36 -29 58 -23 63 16 62 8 62 345 l0 307 -23 21 c-29 27 -67 28 -98 3
-22 -18 -24 -28 -27 -130 l-4 -111 -114 0 -114 0 0 110 c0 99 -2 111 -22 130
-28 25 -72 26 -97 1z"/>
<path d="M2027 2279 c-9 -5 -23 -22 -31 -37 -25 -50 -216 -559 -216 -576 0
-29 18 -53 49 -65 46 -19 83 5 108 71 l20 53 112 3 111 3 26 -60 c18 -42 34
-63 53 -71 49 -20 101 15 101 68 0 11 -47 146 -105 299 -76 201 -112 284 -131
301 -27 23 -67 28 -97 11z m50 -397 c-27 -2 -51 -1 -53 1 -4 4 9 43 36 112
l12 30 27 -70 27 -70 -49 -3z"/>
<path d="M2502 2267 c-22 -23 -22 -29 -22 -324 0 -372 -10 -346 145 -351 122
-4 147 0 175 30 26 28 25 58 -1 92 -19 24 -26 26 -94 26 l-74 0 -3 256 c-3
255 -3 256 -27 275 -32 26 -73 24 -99 -4z"/>
<path d="M3183 2275 c-22 -15 -52 -88 -183 -436 -70 -187 -72 -209 -16 -235
49 -24 87 -2 113 68 l20 53 112 3 111 3 26 -60 c18 -42 34 -63 53 -71 49 -20
101 15 101 69 0 10 -47 145 -105 298 -111 293 -128 323 -183 323 -15 0 -37 -7
-49 -15z m54 -393 c-27 -2 -51 -1 -53 1 -4 4 10 47 36 112 l12 30 27 -70 27
-70 -49 -3z"/>
<path d="M3670 2270 c-11 -11 -22 -30 -25 -42 -3 -13 -5 -150 -3 -305 4 -353
-9 -328 173 -328 115 0 126 2 146 22 27 26 29 77 5 101 -12 12 -40 18 -94 22
l-77 5 -5 257 c-5 242 -6 258 -25 272 -28 21 -71 20 -95 -4z"/>
</g>
</svg>
