<?xml version="1.0" standalone="no"?>
<!DOCTYPE svg PUBLIC "-//W3C//DTD SVG 20010904//EN"
 "http://www.w3.org/TR/2001/REC-SVG-20010904/DTD/svg10.dtd">
<svg version="1.0" xmlns="http://www.w3.org/2000/svg"
 width="512.000000pt" height="512.000000pt" viewBox="0 0 512.000000 512.000000"
 preserveAspectRatio="xMidYMid meet">

<g transform="translate(0.000000,512.000000) scale(0.100000,-0.100000)"
fill="#000000" stroke="none">
<path d="M2360 5114 c-262 -26 -535 -91 -750 -178 l-85 -34 -85 82 c-47 46
-97 90 -111 100 -47 30 -105 23 -199 -24 -183 -92 -325 -196 -471 -347 -136
-140 -203 -231 -302 -414 -76 -140 -74 -181 14 -274 l52 -55 -55 -92 c-455
-764 -487 -1682 -87 -2480 151 -300 412 -621 682 -838 276 -220 625 -394 969
-481 487 -123 1041 -95 1503 76 128 47 345 151 452 217 l84 51 52 -51 c86 -85
120 -89 246 -34 276 123 541 356 700 615 60 99 128 238 136 279 10 54 -15 98
-113 200 l-90 93 39 97 c70 177 120 366 156 598 24 152 24 515 0 675 -88 594
-338 1091 -753 1496 -398 388 -894 629 -1449 705 -109 15 -448 26 -535 18z
m525 -169 c532 -75 997 -306 1375 -685 294 -293 498 -637 609 -1023 72 -251
94 -411 95 -677 0 -220 -15 -360 -59 -546 -22 -92 -97 -332 -114 -361 -4 -8
-77 58 -209 190 l-201 202 19 75 c31 118 50 288 50 447 0 225 -37 432 -114
647 -43 118 -149 326 -182 357 -47 44 -124 16 -124 -45 0 -13 33 -87 73 -167
108 -211 161 -386 188 -619 15 -129 7 -350 -17 -479 l-17 -93 -1044 1043
-1043 1044 52 12 c217 49 523 42 760 -18 303 -76 550 -216 811 -458 82 -75
108 -85 146 -53 11 9 24 32 27 49 6 30 1 38 -62 104 -240 248 -602 447 -946
519 -276 57 -602 52 -854 -14 l-59 -16 -202 202 c-132 132 -198 205 -190 209
29 17 269 92 361 114 96 22 272 50 381 59 91 7 381 -4 490 -19z m220 -1845
l1849 -1849 -29 -63 c-142 -305 -412 -574 -707 -706 l-65 -30 -884 884 c-771
771 -888 884 -913 884 -40 0 -76 -35 -76 -74 0 -27 63 -94 546 -577 l547 -547
-69 -35 c-73 -37 -244 -100 -251 -93 -2 2 -8 30 -13 62 -33 233 -209 414 -449
461 -263 52 -537 -111 -619 -367 -11 -36 -23 -77 -26 -92 l-6 -27 -75 33 c-42
18 -107 50 -146 72 -60 33 -69 40 -54 49 183 106 313 250 384 423 186 453 -45
964 -507 1123 -207 71 -482 48 -665 -57 -23 -13 -46 -24 -51 -24 -14 0 2 217
25 337 25 132 85 315 134 412 l37 74 522 -522 c460 -459 525 -521 552 -521 41
0 74 32 74 73 0 29 -76 108 -855 887 -470 470 -855 861 -855 868 0 44 146 271
254 395 81 92 222 215 316 276 52 34 209 120 220 121 3 0 837 -832 1855 -1850z
m-2251 276 c-67 -139 -115 -285 -149 -446 -21 -99 -28 -164 -32 -317 l-6 -193
-32 -37 c-82 -97 -133 -193 -171 -320 -24 -77 -27 -105 -27 -228 -1 -113 4
-155 21 -218 66 -242 247 -455 466 -552 143 -63 327 -89 470 -66 l74 12 80
-50 c95 -59 253 -139 339 -170 l61 -23 23 -70 c71 -223 286 -378 524 -378 214
0 401 119 496 316 l44 90 105 33 c58 18 160 59 226 91 l122 58 187 -188 187
-187 -58 -36 c-108 -65 -298 -154 -428 -201 -404 -147 -844 -181 -1267 -100
-1032 198 -1809 1033 -1940 2084 -16 130 -16 432 0 560 43 340 153 664 324
953 l40 69 187 -187 188 -187 -54 -112z m588 -875 c310 -80 518 -349 518 -670
0 -195 -62 -343 -200 -482 -72 -73 -99 -93 -180 -132 -173 -83 -343 -97 -516
-42 -302 95 -506 396 -480 707 25 298 240 554 525 623 86 21 244 19 333 -4z
m1183 -1248 c138 -48 239 -167 266 -315 23 -123 -20 -254 -112 -347 -233 -232
-623 -107 -681 219 -51 291 246 541 527 443z"/>
<path d="M1885 3530 c-42 -46 -7 -123 54 -123 64 0 96 78 51 123 -26 26 -81
26 -105 0z"/>
<path d="M2275 3500 c-43 -48 -10 -120 55 -120 23 0 43 7 53 18 23 25 22 85
-1 105 -26 24 -85 22 -107 -3z"/>
<path d="M2462 3127 c-57 -60 6 -150 83 -121 10 4 23 21 30 38 32 76 -58 142
-113 83z"/>
<path d="M2123 2990 c-70 -28 -45 -140 31 -140 68 0 99 78 51 125 -25 26 -45
30 -82 15z"/>
<path d="M2966 2979 c-50 -39 -23 -129 38 -129 39 0 57 11 71 43 16 39 3 80
-31 96 -35 16 -47 14 -78 -10z"/>
<path d="M2541 2543 c-11 -10 -24 -32 -27 -50 -13 -67 77 -110 124 -60 31 33
29 80 -4 106 -33 26 -65 27 -93 4z"/>
<path d="M2995 2530 c-42 -46 -7 -123 54 -123 64 0 96 78 51 123 -26 26 -81
26 -105 0z"/>
<path d="M3413 2468 c-46 -22 -49 -103 -4 -127 80 -43 155 63 85 118 -29 23
-48 25 -81 9z"/>
<path d="M2925 2085 c-48 -47 -16 -125 52 -125 32 0 73 42 73 75 0 33 -42 75
-75 75 -14 0 -37 -11 -50 -25z"/>
<path d="M1160 2375 c-258 -58 -440 -282 -440 -540 0 -149 50 -273 155 -384
213 -225 563 -231 786 -11 219 215 221 566 3 784 -130 130 -331 190 -504 151z
m222 -157 c62 -13 155 -73 201 -130 97 -118 117 -283 53 -423 -116 -253 -449
-313 -645 -117 -161 161 -160 409 2 572 73 74 211 125 307 113 19 -2 56 -9 82
-15z"/>
<path d="M1067 2048 c-42 -33 -37 -106 9 -127 35 -16 47 -14 78 10 52 41 23
129 -42 129 -16 0 -36 -6 -45 -12z"/>
<path d="M1431 1993 c-11 -10 -24 -32 -27 -50 -13 -67 77 -110 124 -60 29 31
28 72 -3 102 -28 29 -64 32 -94 8z"/>
<path d="M1194 1710 c-26 -10 -54 -48 -54 -71 0 -9 9 -28 21 -43 41 -52 129
-23 129 43 0 52 -51 89 -96 71z"/>
</g>
</svg>
