<?xml version="1.0" standalone="no"?>
<!DOCTYPE svg PUBLIC "-//W3C//DTD SVG 20010904//EN"
 "http://www.w3.org/TR/2001/REC-SVG-20010904/DTD/svg10.dtd">
<svg version="1.0" xmlns="http://www.w3.org/2000/svg"
 width="512.000000pt" height="512.000000pt" viewBox="0 0 512.000000 512.000000"
 preserveAspectRatio="xMidYMid meet">

<g transform="translate(0.000000,512.000000) scale(0.100000,-0.100000)"
fill="#000000" stroke="none">
<path d="M1405 4673 c-47 -24 -86 -64 -106 -108 -15 -32 -19 -65 -19 -166 l0
-126 -162 -6 c-139 -4 -175 -9 -245 -31 -159 -51 -295 -167 -373 -317 -75
-144 -71 -46 -68 -1601 l3 -1393 26 -67 c74 -190 207 -323 397 -397 l67 -26
642 0 641 0 44 30 c138 97 118 306 -34 370 -32 13 -115 15 -598 15 -397 0
-575 3 -608 12 -69 17 -136 88 -151 159 -9 39 -11 312 -9 1009 l3 955 1705 0
1705 0 5 -460 c5 -503 3 -487 67 -547 106 -101 280 -63 337 74 14 33 16 138
16 847 0 543 -4 828 -11 863 -16 81 -91 225 -149 290 -70 79 -183 152 -283
184 -70 22 -106 27 -244 31 l-163 6 0 124 c0 135 -10 176 -58 226 -79 83 -219
90 -300 14 -53 -49 -66 -92 -70 -234 l-4 -133 -848 0 -848 0 -4 133 c-4 142
-17 185 -70 234 -55 51 -170 69 -233 36z m2746 -861 c39 -20 62 -41 84 -77 30
-48 30 -51 30 -184 l0 -136 -1705 0 -1705 0 0 136 c0 133 0 136 30 184 22 36
45 57 84 77 l53 28 1538 0 1538 0 53 -28z"/>
<path d="M2928 1698 c-21 -5 -58 -28 -83 -50 -73 -64 -92 -164 -47 -253 8 -16
81 -98 163 -180 l149 -151 -146 -144 c-80 -80 -155 -163 -167 -185 -68 -128
23 -291 168 -303 101 -8 115 2 392 281 230 232 251 256 262 300 14 58 7 108
-24 162 -29 49 -468 487 -510 508 -41 21 -113 28 -157 15z"/>
<path d="M4002 1700 c-84 -20 -162 -116 -162 -199 0 -86 15 -108 181 -276
l159 -161 -151 -149 c-159 -158 -188 -200 -189 -273 -1 -150 158 -255 298
-196 50 20 505 474 532 530 26 53 26 133 1 182 -11 20 -131 148 -268 283 -226
224 -252 247 -295 258 -52 12 -59 12 -106 1z"/>
</g>
</svg>
